<svg viewBox="0 0 600 320" xmlns="http://www.w3.org/2000/svg" role="img" aria-label="Pokemon TCG playmat diagram">

    <defs>
      <filter id="glow" x="-60%" y="-60%" width="220%" height="220%">
        <feDropShadow dx="0" dy="0" stdDeviation="4" flood-color="#ffcb05" flood-opacity="0.9"/>
      </filter>
      <clipPath id="board-clip">
        <rect x="4" y="4" width="592" height="290" rx="14"/>
      </clipPath>
    </defs>
    
<rect x="4" y="4" width="592" height="290" rx="14" fill="#a1b6e8" stroke="#000" stroke-width="4"/>
<g clip-path="url(#board-clip)" opacity="0.9">
<circle cx="300" cy="149" r="130" fill="#8e9fd1" opacity="0.55"/>
<rect x="90" y="132" width="420" height="34" fill="#a1b6e8"/>
<circle cx="300" cy="149" r="45" fill="#a1b6e8" stroke="#8e9fd1" stroke-width="34"/>
</g>
<text x="67" y="38" font-family="Segoe UI, Arial, sans-serif" font-size="13" font-weight="600" fill="#1a2b4a" text-anchor="middle">Prizes</text>
<rect x="40" y="48" width="54" height="76" rx="6" fill="#a1b6e8" stroke="#f57f17" stroke-width="3" filter="url(#glow)"/>
<rect x="40" y="64" width="54" height="76" rx="6" fill="#a1b6e8" stroke="#f57f17" stroke-width="3" filter="url(#glow)"/>
<rect x="40" y="80" width="54" height="76" rx="6" fill="#a1b6e8" stroke="#f57f17" stroke-width="3" filter="url(#glow)"/>
<rect x="40" y="96" width="54" height="76" rx="6" fill="#a1b6e8" stroke="#f57f17" stroke-width="3" filter="url(#glow)"/>
<rect x="40" y="112" width="54" height="76" rx="6" fill="#a1b6e8" stroke="#f57f17" stroke-width="3" filter="url(#glow)"/>
<rect x="40" y="128" width="54" height="76" rx="6" fill="#f8fbff" stroke="#f57f17" stroke-width="3" filter="url(#glow)"/>
    <circle cx="67" cy="166" r="13" fill="#8e9fd1" stroke="#000" stroke-width="1.2"/>
    <rect x="54" y="165" width="26" height="2" fill="#a1b6e8"/>
    <circle cx="67" cy="166" r="4" fill="#a1b6e8" stroke="#000" stroke-width="1"/>
    
<text x="304" y="40" font-family="Segoe UI, Arial, sans-serif" font-size="13" font-weight="600" fill="#1a2b4a" text-anchor="middle">Active</text>
<rect x="272" y="48" width="64" height="88" rx="6" fill="#a1b6e8" stroke="#f57f17" stroke-width="3" filter="url(#glow)"/>
    <rect x="276" y="53" width="56" height="33.44" fill="#8e9fd1"/>
    <rect x="276" y="92.44" width="56" height="3" fill="#8e9fd1"/>
    <rect x="276" y="99.44" width="30.800000000000004" height="3" fill="#8e9fd1"/>
    
<text x="300" y="176" font-family="Segoe UI, Arial, sans-serif" font-size="13" font-weight="600" fill="#1a2b4a" text-anchor="middle">Bench</text>
<rect x="160" y="180" width="280" height="86" rx="8" fill="#a1b6e8" stroke="#f57f17" stroke-width="3" filter="url(#glow)"/>
<text x="535" y="30" font-family="Segoe UI, Arial, sans-serif" font-size="13" font-weight="600" fill="#1a2b4a" text-anchor="middle">Deck</text>
<rect x="506" y="48" width="54" height="76" rx="6" fill="#a1b6e8" stroke="#f57f17" stroke-width="3" filter="url(#glow)"/>
<rect x="510" y="44" width="54" height="76" rx="6" fill="#a1b6e8" stroke="#f57f17" stroke-width="3" filter="url(#glow)"/>
<rect x="514" y="40" width="54" height="76" rx="6" fill="#a1b6e8" stroke="#f57f17" stroke-width="3" filter="url(#glow)"/>
<rect x="518" y="36" width="54" height="76" rx="6" fill="#a1b6e8" stroke="#f57f17" stroke-width="3" filter="url(#glow)"/>
    <circle cx="545" cy="74" r="13" fill="#8e9fd1" stroke="#000" stroke-width="1.2"/>
    <rect x="532" y="73" width="26" height="2" fill="#a1b6e8"/>
    <circle cx="545" cy="74" r="4" fill="#a1b6e8" stroke="#000" stroke-width="1"/>
    
<text x="535" y="176" font-family="Segoe UI, Arial, sans-serif" font-size="13" font-weight="600" fill="#1a2b4a" text-anchor="middle">Discard</text>
<rect x="506" y="180" width="54" height="76" rx="6" fill="#a1b6e8" stroke="#000" stroke-width="2"/>
<rect x="510" y="184" width="54" height="76" rx="6" fill="#a1b6e8" stroke="#000" stroke-width="2"/>
<rect x="514" y="188" width="54" height="76" rx="6" fill="#a1b6e8" stroke="#000" stroke-width="2"/>
    <rect x="518" y="193" width="46" height="28.88" fill="#8e9fd1"/>
    <rect x="518" y="227.88" width="46" height="3" fill="#8e9fd1"/>
    <rect x="518" y="234.88" width="25.3" height="3" fill="#8e9fd1"/>
    
</svg>